<?xml version="1.0" encoding="UTF-8" standalone="no"?>
<svg
   id="Layer_1"
   version="1.1"
   viewBox="0 0 54 17"
   sodipodi:docname="dha_logo.svg"
   inkscape:export-filename="dha_logo.png"
   inkscape:export-xdpi="96"
   inkscape:export-ydpi="96"
   width="54"
   height="17"
   inkscape:version="1.3 (0e150ed6c4, 2023-07-21)"
   xmlns:inkscape="http://www.inkscape.org/namespaces/inkscape"
   xmlns:sodipodi="http://sodipodi.sourceforge.net/DTD/sodipodi-0.dtd"
   xmlns="http://www.w3.org/2000/svg"
   xmlns:svg="http://www.w3.org/2000/svg">
  <sodipodi:namedview
     id="namedview16"
     pagecolor="#ffffff"
     bordercolor="#000000"
     borderopacity="0.25"
     inkscape:showpageshadow="2"
     inkscape:pageopacity="0.0"
     inkscape:pagecheckerboard="0"
     inkscape:deskcolor="#d1d1d1"
     inkscape:zoom="29.525"
     inkscape:cx="26.994073"
     inkscape:cy="20"
     inkscape:window-width="3440"
     inkscape:window-height="1377"
     inkscape:window-x="1912"
     inkscape:window-y="-8"
     inkscape:window-maximized="1"
     inkscape:current-layer="Layer_1" />
  <!-- Generator: Adobe Illustrator 29.0.1, SVG Export Plug-In . SVG Version: 2.1.0 Build 192)  -->
  <defs
     id="defs1">
    <style
       id="style1">&#10;      .st0 {&#10;        fill: #ff6a13;&#10;      }&#10;    </style>
  </defs>
  <g
     id="g3"
     transform="translate(0,-10)">
    <path
       class="st0"
       d="m 14.9,14.69 h 0.08 v -4.05 h 2.99 V 23.39 H 15.66 L 15.39,22.54 H 15.31 C 13.8,23.1 11.72,23.56 9.38,23.56 6.83,23.56 4.96,23.15 3.8,22.32 2.86,21.64 2.17,20.43 2.17,18.8 c 0,-1.63 0.66,-2.77 1.61,-3.48 1.04,-0.76 2.94,-1.27 5.54,-1.27 2.28,0 4.61,0.39 5.58,0.65 z m 0.09,5.64 V 17 c -0.56,-0.14 -2.82,-0.54 -5.2,-0.54 -1.87,0 -3.06,0.22 -3.67,0.58 -0.66,0.39 -0.93,1.02 -0.93,1.77 0,0.85 0.34,1.39 0.92,1.73 0.75,0.44 1.9,0.61 3.77,0.61 1.87,0 4.23,-0.49 5.12,-0.82 z"
       id="path1" />
    <path
       class="st0"
       d="m 32.36,23.39 v -4.66 c 0,-1.51 -0.97,-2.28 -4.08,-2.28 -2.52,0 -4.64,0.61 -5,0.75 v 6.19 H 20.29 V 10.64 h 2.99 v 4.25 h 0.07 c 0.92,-0.31 2.97,-0.85 5.35,-0.85 5.22,0 6.65,1.85 6.65,4.54 v 4.81 z"
       id="path2" />
    <path
       class="st0"
       d="M 49.29,23.39 49,22.54 h -0.05 c -1.51,0.51 -3.77,1.09 -6.24,1.09 -1.82,0 -3.11,-0.19 -3.96,-0.61 -0.88,-0.44 -1.31,-1.17 -1.31,-2.23 0,-0.95 0.44,-1.7 1.24,-2.14 0.73,-0.39 2.14,-0.7 4.37,-0.7 2.23,0 4.86,0.27 5.51,0.34 h 0.05 V 17.8 c 0,-1.02 -1.77,-1.51 -5.17,-1.51 -2.6,0 -4.39,0.37 -5.01,0.51 l -0.34,-2.18 c 0.36,-0.1 2.75,-0.58 5.52,-0.58 5.17,0 7.99,1.31 7.99,3.62 v 5.73 z m -0.68,-2.6 v -0.97 c 0,0 -2.48,-0.2 -4.98,-0.2 -1.48,0 -2.38,0.05 -2.79,0.25 -0.27,0.14 -0.41,0.37 -0.41,0.66 0,0.32 0.12,0.56 0.41,0.7 0.32,0.15 0.99,0.25 2.21,0.25 2.33,0 4.42,-0.37 5.56,-0.7 z"
       id="path3" />
  </g>
  <g
     id="g16"
     transform="translate(0,-10)">
    <path
       class="st0"
       d="m 4.99,24.96 -0.05,0.2 c -0.28,-0.08 -0.79,-0.19 -1.3,-0.19 -0.51,0 -0.83,0.09 -1,0.2 -0.17,0.11 -0.26,0.27 -0.26,0.5 0,0.23 0.1,0.4 0.27,0.49 0.19,0.1 0.53,0.16 1.03,0.16 0.47,0 1.01,-0.12 1.29,-0.21 l 0.05,0.21 C 4.75,26.41 4.2,26.53 3.68,26.53 3.07,26.53 2.74,26.47 2.47,26.32 2.26,26.2 2.12,25.97 2.12,25.67 c 0,-0.32 0.13,-0.52 0.35,-0.66 0.22,-0.14 0.59,-0.25 1.17,-0.25 0.58,0 1.09,0.11 1.35,0.2 z"
       id="path4" />
    <path
       class="st0"
       d="M 6.31,26.29 C 6.09,26.16 5.96,25.97 5.96,25.64 c 0,-0.33 0.14,-0.52 0.35,-0.65 0.23,-0.14 0.64,-0.24 1.2,-0.24 0.56,0 0.97,0.1 1.2,0.24 0.21,0.13 0.35,0.33 0.35,0.65 0,0.32 -0.13,0.51 -0.35,0.65 -0.23,0.14 -0.63,0.24 -1.2,0.24 -0.57,0 -0.97,-0.1 -1.2,-0.24 z m 2.22,-0.16 c 0.18,-0.1 0.28,-0.25 0.28,-0.49 0,-0.24 -0.09,-0.39 -0.27,-0.49 -0.19,-0.11 -0.55,-0.18 -1.02,-0.18 -0.47,0 -0.83,0.08 -1.02,0.18 -0.18,0.11 -0.27,0.26 -0.27,0.49 0,0.23 0.1,0.39 0.27,0.49 0.19,0.11 0.56,0.18 1.02,0.18 0.46,0 0.83,-0.07 1.02,-0.18 z"
       id="path5" />
    <path
       class="st0"
       d="m 12.95,25.11 v 0 l -1.27,1.2 h -0.01 l -1.27,-1.2 v 0 1.38 h -0.25 v -1.7 h 0.21 l 1.31,1.24 v 0 l 1.31,-1.24 h 0.22 v 1.7 h -0.25 z"
       id="path6" />
    <path
       class="st0"
       d="m 17.13,25.11 v 0 l -1.27,1.2 h -0.01 l -1.27,-1.2 v 0 1.38 h -0.25 v -1.7 h 0.21 l 1.31,1.24 v 0 l 1.31,-1.24 h 0.22 v 1.7 h -0.25 z"
       id="path7" />
    <path
       class="st0"
       d="m 18.76,24.79 v 0.99 c 0,0.32 0.44,0.54 1.17,0.54 0.73,0 1.17,-0.22 1.17,-0.54 v -0.99 h 0.25 v 1.01 c 0,0.38 -0.44,0.73 -1.42,0.73 -0.98,0 -1.42,-0.34 -1.42,-0.73 v -1.01 z"
       id="path8" />
    <path
       class="st0"
       d="m 22.73,25.08 v 0 1.41 h -0.25 v -1.7 h 0.21 c 0.79,0.47 1.58,0.94 2.37,1.41 v 0 -1.41 h 0.25 v 1.7 H 25.1 c -0.79,-0.47 -1.58,-0.94 -2.37,-1.41 z"
       id="path9" />
    <path
       class="st0"
       d="M 26.85,26.49 H 26.6 v -1.7 h 0.25 z"
       id="path10" />
    <path
       class="st0"
       d="m 27.99,25 v -0.21 h 2.8 V 25 h -1.27 v 1.49 H 29.27 V 25 H 28 Z"
       id="path11" />
    <path
       class="st0"
       d="m 32,24.79 1.11,0.89 v 0 l 1.11,-0.89 h 0.36 v 0.02 l -1.35,1.07 v 0.61 h -0.25 v -0.61 l -1.35,-1.07 v -0.02 h 0.36 z"
       id="path12" />
    <path
       class="st0"
       d="m 39.64,25.59 c 0.21,0.07 0.3,0.22 0.3,0.4 0,0.33 -0.21,0.5 -0.7,0.5 H 37.2 v -1.7 h 2.01 c 0.5,0 0.65,0.22 0.65,0.45 0,0.19 -0.11,0.3 -0.23,0.35 v 0 z M 39.3,25.51 c 0.16,0 0.32,-0.06 0.32,-0.25 0,-0.15 -0.1,-0.27 -0.43,-0.27 h -1.73 v 0.53 h 1.84 z m -1.84,0.19 v 0.59 h 1.77 c 0.34,0 0.45,-0.11 0.45,-0.29 0,-0.18 -0.14,-0.3 -0.42,-0.3 h -1.81 z"
       id="path13" />
    <path
       class="st0"
       d="m 43.42,26.11 h -1.95 l -0.35,0.38 h -0.3 v -0.02 l 1.54,-1.68 h 0.17 l 1.54,1.68 v 0.02 h -0.3 z m -1.77,-0.19 h 1.59 l -0.49,-0.53 c -0.16,-0.17 -0.29,-0.32 -0.31,-0.35 v 0 c 0,0 -0.16,0.18 -0.31,0.35 l -0.49,0.53 z"
       id="path14" />
    <path
       class="st0"
       d="m 45.3,25.08 v 0 1.41 h -0.25 v -1.7 h 0.21 c 0.79,0.47 1.58,0.94 2.37,1.41 v 0 -1.41 h 0.25 v 1.7 H 47.67 C 46.88,26.02 46.09,25.55 45.3,25.08 Z"
       id="path15" />
    <path
       class="st0"
       d="m 51.86,24.83 -1.96,0.78 v 0 c 0,0 2.03,0.84 2.03,0.84 v 0.04 h -0.45 l -1.89,-0.78 h -0.35 v 0.78 h -0.25 v -1.7 h 0.25 v 0.73 h 0.34 l 1.83,-0.73 h 0.43 v 0.04 z"
       id="path16" />
  </g>
</svg>
